G04 #@! TF.GenerationSoftware,KiCad,Pcbnew,(5.1.4)-1*
G04 #@! TF.CreationDate,2020-02-29T18:51:56+01:00*
G04 #@! TF.ProjectId,PLA_C64,504c415f-4336-4342-9e6b-696361645f70,rev?*
G04 #@! TF.SameCoordinates,Original*
G04 #@! TF.FileFunction,Paste,Top*
G04 #@! TF.FilePolarity,Positive*
%FSLAX46Y46*%
G04 Gerber Fmt 4.6, Leading zero omitted, Abs format (unit mm)*
G04 Created by KiCad (PCBNEW (5.1.4)-1) date 2020-02-29 18:51:56*
%MOMM*%
%LPD*%
G04 APERTURE LIST*
%ADD10R,1.500000X0.550000*%
%ADD11R,0.550000X1.500000*%
G04 APERTURE END LIST*
D10*
X18596100Y-36567900D03*
X18596100Y-35767900D03*
X18596100Y-34967900D03*
X18596100Y-34167900D03*
X18596100Y-33367900D03*
X18596100Y-32567900D03*
X18596100Y-31767900D03*
X18596100Y-30967900D03*
X18596100Y-30167900D03*
X18596100Y-29367900D03*
X18596100Y-28567900D03*
D11*
X20296100Y-26867900D03*
X21096100Y-26867900D03*
X21896100Y-26867900D03*
X22696100Y-26867900D03*
X23496100Y-26867900D03*
X24296100Y-26867900D03*
X25096100Y-26867900D03*
X25896100Y-26867900D03*
X26696100Y-26867900D03*
X27496100Y-26867900D03*
X28296100Y-26867900D03*
D10*
X29996100Y-28567900D03*
X29996100Y-29367900D03*
X29996100Y-30167900D03*
X29996100Y-30967900D03*
X29996100Y-31767900D03*
X29996100Y-32567900D03*
X29996100Y-33367900D03*
X29996100Y-34167900D03*
X29996100Y-34967900D03*
X29996100Y-35767900D03*
X29996100Y-36567900D03*
D11*
X28296100Y-38267900D03*
X27496100Y-38267900D03*
X26696100Y-38267900D03*
X25896100Y-38267900D03*
X25096100Y-38267900D03*
X24296100Y-38267900D03*
X23496100Y-38267900D03*
X22696100Y-38267900D03*
X21896100Y-38267900D03*
X21096100Y-38267900D03*
X20296100Y-38267900D03*
M02*
