G04 #@! TF.GenerationSoftware,KiCad,Pcbnew,(5.1.4)-1*
G04 #@! TF.CreationDate,2020-02-29T18:51:56+01:00*
G04 #@! TF.ProjectId,PLA_C64,504c415f-4336-4342-9e6b-696361645f70,rev?*
G04 #@! TF.SameCoordinates,Original*
G04 #@! TF.FileFunction,Copper,L2,Bot*
G04 #@! TF.FilePolarity,Positive*
%FSLAX46Y46*%
G04 Gerber Fmt 4.6, Leading zero omitted, Abs format (unit mm)*
G04 Created by KiCad (PCBNEW (5.1.4)-1) date 2020-02-29 18:51:56*
%MOMM*%
%LPD*%
G04 APERTURE LIST*
%ADD10O,0.800000X1.300000*%
%ADD11C,0.100000*%
%ADD12C,0.800000*%
%ADD13O,1.600000X1.600000*%
%ADD14R,1.600000X1.600000*%
%ADD15R,1.500000X2.000000*%
%ADD16R,3.800000X2.000000*%
%ADD17C,1.350000*%
%ADD18C,0.250000*%
%ADD19C,0.500000*%
%ADD20C,0.254000*%
G04 APERTURE END LIST*
D10*
X27415800Y-44574500D03*
X26165800Y-44574500D03*
X24915800Y-44574500D03*
X23665800Y-44574500D03*
X22415800Y-44574500D03*
D11*
G36*
X21385403Y-43925463D02*
G01*
X21404818Y-43928343D01*
X21423857Y-43933112D01*
X21442337Y-43939724D01*
X21460079Y-43948116D01*
X21476914Y-43958206D01*
X21492679Y-43969898D01*
X21507221Y-43983079D01*
X21520402Y-43997621D01*
X21532094Y-44013386D01*
X21542184Y-44030221D01*
X21550576Y-44047963D01*
X21557188Y-44066443D01*
X21561957Y-44085482D01*
X21564837Y-44104897D01*
X21565800Y-44124500D01*
X21565800Y-45024500D01*
X21564837Y-45044103D01*
X21561957Y-45063518D01*
X21557188Y-45082557D01*
X21550576Y-45101037D01*
X21542184Y-45118779D01*
X21532094Y-45135614D01*
X21520402Y-45151379D01*
X21507221Y-45165921D01*
X21492679Y-45179102D01*
X21476914Y-45190794D01*
X21460079Y-45200884D01*
X21442337Y-45209276D01*
X21423857Y-45215888D01*
X21404818Y-45220657D01*
X21385403Y-45223537D01*
X21365800Y-45224500D01*
X20965800Y-45224500D01*
X20946197Y-45223537D01*
X20926782Y-45220657D01*
X20907743Y-45215888D01*
X20889263Y-45209276D01*
X20871521Y-45200884D01*
X20854686Y-45190794D01*
X20838921Y-45179102D01*
X20824379Y-45165921D01*
X20811198Y-45151379D01*
X20799506Y-45135614D01*
X20789416Y-45118779D01*
X20781024Y-45101037D01*
X20774412Y-45082557D01*
X20769643Y-45063518D01*
X20766763Y-45044103D01*
X20765800Y-45024500D01*
X20765800Y-44124500D01*
X20766763Y-44104897D01*
X20769643Y-44085482D01*
X20774412Y-44066443D01*
X20781024Y-44047963D01*
X20789416Y-44030221D01*
X20799506Y-44013386D01*
X20811198Y-43997621D01*
X20824379Y-43983079D01*
X20838921Y-43969898D01*
X20854686Y-43958206D01*
X20871521Y-43948116D01*
X20889263Y-43939724D01*
X20907743Y-43933112D01*
X20926782Y-43928343D01*
X20946197Y-43925463D01*
X20965800Y-43924500D01*
X21365800Y-43924500D01*
X21385403Y-43925463D01*
X21385403Y-43925463D01*
G37*
D12*
X21165800Y-44574500D03*
D13*
X31952300Y-16628600D03*
X16712300Y-49648600D03*
X31952300Y-19168600D03*
X16712300Y-47108600D03*
X31952300Y-21708600D03*
X16712300Y-44568600D03*
X31952300Y-24248600D03*
X16712300Y-42028600D03*
X31952300Y-26788600D03*
X16712300Y-39488600D03*
X31952300Y-29328600D03*
X16712300Y-36948600D03*
X31952300Y-31868600D03*
X16712300Y-34408600D03*
X31952300Y-34408600D03*
X16712300Y-31868600D03*
X31952300Y-36948600D03*
X16712300Y-29328600D03*
X31952300Y-39488600D03*
X16712300Y-26788600D03*
X31952300Y-42028600D03*
X16712300Y-24248600D03*
X31952300Y-44568600D03*
X16712300Y-21708600D03*
X31952300Y-47108600D03*
X16712300Y-19168600D03*
X31952300Y-49648600D03*
D14*
X16712300Y-16628600D03*
D15*
X21995100Y-20827600D03*
X26595100Y-20827600D03*
X24295100Y-20827600D03*
D16*
X24295100Y-27127600D03*
D11*
G36*
X19771305Y-22812704D02*
G01*
X19795573Y-22816304D01*
X19819372Y-22822265D01*
X19842471Y-22830530D01*
X19864650Y-22841020D01*
X19885693Y-22853632D01*
X19905399Y-22868247D01*
X19923577Y-22884723D01*
X19940053Y-22902901D01*
X19954668Y-22922607D01*
X19967280Y-22943650D01*
X19977770Y-22965829D01*
X19986035Y-22988928D01*
X19991996Y-23012727D01*
X19995596Y-23036995D01*
X19996800Y-23061499D01*
X19996800Y-23961501D01*
X19995596Y-23986005D01*
X19991996Y-24010273D01*
X19986035Y-24034072D01*
X19977770Y-24057171D01*
X19967280Y-24079350D01*
X19954668Y-24100393D01*
X19940053Y-24120099D01*
X19923577Y-24138277D01*
X19905399Y-24154753D01*
X19885693Y-24169368D01*
X19864650Y-24181980D01*
X19842471Y-24192470D01*
X19819372Y-24200735D01*
X19795573Y-24206696D01*
X19771305Y-24210296D01*
X19746801Y-24211500D01*
X18896799Y-24211500D01*
X18872295Y-24210296D01*
X18848027Y-24206696D01*
X18824228Y-24200735D01*
X18801129Y-24192470D01*
X18778950Y-24181980D01*
X18757907Y-24169368D01*
X18738201Y-24154753D01*
X18720023Y-24138277D01*
X18703547Y-24120099D01*
X18688932Y-24100393D01*
X18676320Y-24079350D01*
X18665830Y-24057171D01*
X18657565Y-24034072D01*
X18651604Y-24010273D01*
X18648004Y-23986005D01*
X18646800Y-23961501D01*
X18646800Y-23061499D01*
X18648004Y-23036995D01*
X18651604Y-23012727D01*
X18657565Y-22988928D01*
X18665830Y-22965829D01*
X18676320Y-22943650D01*
X18688932Y-22922607D01*
X18703547Y-22902901D01*
X18720023Y-22884723D01*
X18738201Y-22868247D01*
X18757907Y-22853632D01*
X18778950Y-22841020D01*
X18801129Y-22830530D01*
X18824228Y-22822265D01*
X18848027Y-22816304D01*
X18872295Y-22812704D01*
X18896799Y-22811500D01*
X19746801Y-22811500D01*
X19771305Y-22812704D01*
X19771305Y-22812704D01*
G37*
D17*
X19321800Y-23511500D03*
D11*
G36*
X19771305Y-20112704D02*
G01*
X19795573Y-20116304D01*
X19819372Y-20122265D01*
X19842471Y-20130530D01*
X19864650Y-20141020D01*
X19885693Y-20153632D01*
X19905399Y-20168247D01*
X19923577Y-20184723D01*
X19940053Y-20202901D01*
X19954668Y-20222607D01*
X19967280Y-20243650D01*
X19977770Y-20265829D01*
X19986035Y-20288928D01*
X19991996Y-20312727D01*
X19995596Y-20336995D01*
X19996800Y-20361499D01*
X19996800Y-21261501D01*
X19995596Y-21286005D01*
X19991996Y-21310273D01*
X19986035Y-21334072D01*
X19977770Y-21357171D01*
X19967280Y-21379350D01*
X19954668Y-21400393D01*
X19940053Y-21420099D01*
X19923577Y-21438277D01*
X19905399Y-21454753D01*
X19885693Y-21469368D01*
X19864650Y-21481980D01*
X19842471Y-21492470D01*
X19819372Y-21500735D01*
X19795573Y-21506696D01*
X19771305Y-21510296D01*
X19746801Y-21511500D01*
X18896799Y-21511500D01*
X18872295Y-21510296D01*
X18848027Y-21506696D01*
X18824228Y-21500735D01*
X18801129Y-21492470D01*
X18778950Y-21481980D01*
X18757907Y-21469368D01*
X18738201Y-21454753D01*
X18720023Y-21438277D01*
X18703547Y-21420099D01*
X18688932Y-21400393D01*
X18676320Y-21379350D01*
X18665830Y-21357171D01*
X18657565Y-21334072D01*
X18651604Y-21310273D01*
X18648004Y-21286005D01*
X18646800Y-21261501D01*
X18646800Y-20361499D01*
X18648004Y-20336995D01*
X18651604Y-20312727D01*
X18657565Y-20288928D01*
X18665830Y-20265829D01*
X18676320Y-20243650D01*
X18688932Y-20222607D01*
X18703547Y-20202901D01*
X18720023Y-20184723D01*
X18738201Y-20168247D01*
X18757907Y-20153632D01*
X18778950Y-20141020D01*
X18801129Y-20130530D01*
X18824228Y-20122265D01*
X18848027Y-20116304D01*
X18872295Y-20112704D01*
X18896799Y-20111500D01*
X19746801Y-20111500D01*
X19771305Y-20112704D01*
X19771305Y-20112704D01*
G37*
D17*
X19321800Y-20811500D03*
D11*
G36*
X29743305Y-22812704D02*
G01*
X29767573Y-22816304D01*
X29791372Y-22822265D01*
X29814471Y-22830530D01*
X29836650Y-22841020D01*
X29857693Y-22853632D01*
X29877399Y-22868247D01*
X29895577Y-22884723D01*
X29912053Y-22902901D01*
X29926668Y-22922607D01*
X29939280Y-22943650D01*
X29949770Y-22965829D01*
X29958035Y-22988928D01*
X29963996Y-23012727D01*
X29967596Y-23036995D01*
X29968800Y-23061499D01*
X29968800Y-23961501D01*
X29967596Y-23986005D01*
X29963996Y-24010273D01*
X29958035Y-24034072D01*
X29949770Y-24057171D01*
X29939280Y-24079350D01*
X29926668Y-24100393D01*
X29912053Y-24120099D01*
X29895577Y-24138277D01*
X29877399Y-24154753D01*
X29857693Y-24169368D01*
X29836650Y-24181980D01*
X29814471Y-24192470D01*
X29791372Y-24200735D01*
X29767573Y-24206696D01*
X29743305Y-24210296D01*
X29718801Y-24211500D01*
X28868799Y-24211500D01*
X28844295Y-24210296D01*
X28820027Y-24206696D01*
X28796228Y-24200735D01*
X28773129Y-24192470D01*
X28750950Y-24181980D01*
X28729907Y-24169368D01*
X28710201Y-24154753D01*
X28692023Y-24138277D01*
X28675547Y-24120099D01*
X28660932Y-24100393D01*
X28648320Y-24079350D01*
X28637830Y-24057171D01*
X28629565Y-24034072D01*
X28623604Y-24010273D01*
X28620004Y-23986005D01*
X28618800Y-23961501D01*
X28618800Y-23061499D01*
X28620004Y-23036995D01*
X28623604Y-23012727D01*
X28629565Y-22988928D01*
X28637830Y-22965829D01*
X28648320Y-22943650D01*
X28660932Y-22922607D01*
X28675547Y-22902901D01*
X28692023Y-22884723D01*
X28710201Y-22868247D01*
X28729907Y-22853632D01*
X28750950Y-22841020D01*
X28773129Y-22830530D01*
X28796228Y-22822265D01*
X28820027Y-22816304D01*
X28844295Y-22812704D01*
X28868799Y-22811500D01*
X29718801Y-22811500D01*
X29743305Y-22812704D01*
X29743305Y-22812704D01*
G37*
D17*
X29293800Y-23511500D03*
D11*
G36*
X29743305Y-20112704D02*
G01*
X29767573Y-20116304D01*
X29791372Y-20122265D01*
X29814471Y-20130530D01*
X29836650Y-20141020D01*
X29857693Y-20153632D01*
X29877399Y-20168247D01*
X29895577Y-20184723D01*
X29912053Y-20202901D01*
X29926668Y-20222607D01*
X29939280Y-20243650D01*
X29949770Y-20265829D01*
X29958035Y-20288928D01*
X29963996Y-20312727D01*
X29967596Y-20336995D01*
X29968800Y-20361499D01*
X29968800Y-21261501D01*
X29967596Y-21286005D01*
X29963996Y-21310273D01*
X29958035Y-21334072D01*
X29949770Y-21357171D01*
X29939280Y-21379350D01*
X29926668Y-21400393D01*
X29912053Y-21420099D01*
X29895577Y-21438277D01*
X29877399Y-21454753D01*
X29857693Y-21469368D01*
X29836650Y-21481980D01*
X29814471Y-21492470D01*
X29791372Y-21500735D01*
X29767573Y-21506696D01*
X29743305Y-21510296D01*
X29718801Y-21511500D01*
X28868799Y-21511500D01*
X28844295Y-21510296D01*
X28820027Y-21506696D01*
X28796228Y-21500735D01*
X28773129Y-21492470D01*
X28750950Y-21481980D01*
X28729907Y-21469368D01*
X28710201Y-21454753D01*
X28692023Y-21438277D01*
X28675547Y-21420099D01*
X28660932Y-21400393D01*
X28648320Y-21379350D01*
X28637830Y-21357171D01*
X28629565Y-21334072D01*
X28623604Y-21310273D01*
X28620004Y-21286005D01*
X28618800Y-21261501D01*
X28618800Y-20361499D01*
X28620004Y-20336995D01*
X28623604Y-20312727D01*
X28629565Y-20288928D01*
X28637830Y-20265829D01*
X28648320Y-20243650D01*
X28660932Y-20222607D01*
X28675547Y-20202901D01*
X28692023Y-20184723D01*
X28710201Y-20168247D01*
X28729907Y-20153632D01*
X28750950Y-20141020D01*
X28773129Y-20130530D01*
X28796228Y-20122265D01*
X28820027Y-20116304D01*
X28844295Y-20112704D01*
X28868799Y-20111500D01*
X29718801Y-20111500D01*
X29743305Y-20112704D01*
X29743305Y-20112704D01*
G37*
D17*
X29293800Y-20811500D03*
D12*
X26539200Y-29937300D03*
X24660300Y-29367900D03*
X27582000Y-29566200D03*
D18*
X22000400Y-20832900D02*
X21995100Y-20827600D01*
X19321800Y-23511500D02*
X22000400Y-20832900D01*
X22000400Y-20832900D02*
X25895400Y-24727900D01*
X25895400Y-24727900D02*
X26539200Y-24727900D01*
X26539200Y-24727900D02*
X28077400Y-24727900D01*
X28077400Y-24727900D02*
X29293800Y-23511500D01*
X26539200Y-24727900D02*
X26539200Y-29937300D01*
X22415800Y-44574500D02*
X22415800Y-34060700D01*
X22415800Y-34060700D02*
X26539200Y-29937300D01*
X22415800Y-44574500D02*
X22415800Y-45549800D01*
X16712300Y-49648600D02*
X17837600Y-49648600D01*
X17837600Y-49648600D02*
X21936400Y-45549800D01*
X21936400Y-45549800D02*
X22415800Y-45549800D01*
X23999600Y-29367900D02*
X21165800Y-32201700D01*
X21165800Y-32201700D02*
X21165800Y-44574500D01*
X23182500Y-27127600D02*
X23999600Y-27944700D01*
X23999600Y-27944700D02*
X23999600Y-29367900D01*
X23999600Y-29367900D02*
X24660300Y-29367900D01*
X24295100Y-20827600D02*
X23219800Y-20827600D01*
X19321800Y-20811500D02*
X18275600Y-21857700D01*
X18275600Y-21857700D02*
X18275600Y-24275100D01*
X18275600Y-24275100D02*
X21128100Y-27127600D01*
X21128100Y-27127600D02*
X23182500Y-27127600D01*
X23219800Y-20827600D02*
X23219800Y-19752300D01*
X23219800Y-19752300D02*
X22969700Y-19502200D01*
X22969700Y-19502200D02*
X20631100Y-19502200D01*
X20631100Y-19502200D02*
X19321800Y-20811500D01*
X24295100Y-27127600D02*
X23182500Y-27127600D01*
X24915800Y-44574500D02*
X24915800Y-32723700D01*
X24915800Y-32723700D02*
X27582000Y-30057500D01*
X27582000Y-30057500D02*
X27582000Y-29566200D01*
X29293800Y-20811500D02*
X29293800Y-20210200D01*
D19*
X29293800Y-20811500D02*
X26595060Y-20811500D01*
X29293800Y-20811500D02*
X29293800Y-17874000D01*
X29293800Y-17874000D02*
X30538420Y-16629380D01*
X30538420Y-16629380D02*
X31932880Y-16629380D01*
D20*
G36*
X22122100Y-20700600D02*
G01*
X22142100Y-20700600D01*
X22142100Y-20954600D01*
X22122100Y-20954600D01*
X22122100Y-22303850D01*
X22280850Y-22462600D01*
X22745100Y-22465672D01*
X22869582Y-22453412D01*
X22989280Y-22417102D01*
X23099594Y-22358137D01*
X23145100Y-22320791D01*
X23190606Y-22358137D01*
X23300920Y-22417102D01*
X23420618Y-22453412D01*
X23545100Y-22465672D01*
X25045100Y-22465672D01*
X25169582Y-22453412D01*
X25289280Y-22417102D01*
X25399594Y-22358137D01*
X25445100Y-22320791D01*
X25490606Y-22358137D01*
X25600920Y-22417102D01*
X25720618Y-22453412D01*
X25845100Y-22465672D01*
X27345100Y-22465672D01*
X27469582Y-22453412D01*
X27589280Y-22417102D01*
X27699594Y-22358137D01*
X27796285Y-22278785D01*
X27875637Y-22182094D01*
X27934602Y-22071780D01*
X27970912Y-21952082D01*
X27983172Y-21827600D01*
X27983172Y-21696500D01*
X28099186Y-21696500D01*
X28130395Y-21754887D01*
X28240838Y-21889462D01*
X28375413Y-21999905D01*
X28528949Y-22081972D01*
X28695545Y-22132508D01*
X28868799Y-22149572D01*
X29718801Y-22149572D01*
X29892055Y-22132508D01*
X30058651Y-22081972D01*
X30212187Y-21999905D01*
X30346762Y-21889462D01*
X30457205Y-21754887D01*
X30516775Y-21643440D01*
X30510357Y-21708600D01*
X30538064Y-21989909D01*
X30620118Y-22260408D01*
X30753368Y-22509701D01*
X30932692Y-22728208D01*
X31151199Y-22907532D01*
X31284158Y-22978600D01*
X31151199Y-23049668D01*
X30932692Y-23228992D01*
X30753368Y-23447499D01*
X30620118Y-23696792D01*
X30592939Y-23786389D01*
X30445050Y-23638500D01*
X29420800Y-23638500D01*
X29420800Y-24687750D01*
X29579550Y-24846500D01*
X29968800Y-24849572D01*
X30093282Y-24837312D01*
X30212980Y-24801002D01*
X30323294Y-24742037D01*
X30419985Y-24662685D01*
X30499337Y-24565994D01*
X30535039Y-24499201D01*
X30538064Y-24529909D01*
X30620118Y-24800408D01*
X30753368Y-25049701D01*
X30932692Y-25268208D01*
X31151199Y-25447532D01*
X31284158Y-25518600D01*
X31151199Y-25589668D01*
X30932692Y-25768992D01*
X30753368Y-25987499D01*
X30620118Y-26236792D01*
X30538064Y-26507291D01*
X30510357Y-26788600D01*
X30538064Y-27069909D01*
X30620118Y-27340408D01*
X30753368Y-27589701D01*
X30932692Y-27808208D01*
X31151199Y-27987532D01*
X31284158Y-28058600D01*
X31151199Y-28129668D01*
X30932692Y-28308992D01*
X30753368Y-28527499D01*
X30620118Y-28776792D01*
X30538064Y-29047291D01*
X30510357Y-29328600D01*
X30538064Y-29609909D01*
X30620118Y-29880408D01*
X30753368Y-30129701D01*
X30932692Y-30348208D01*
X31151199Y-30527532D01*
X31284158Y-30598600D01*
X31151199Y-30669668D01*
X30932692Y-30848992D01*
X30753368Y-31067499D01*
X30620118Y-31316792D01*
X30538064Y-31587291D01*
X30510357Y-31868600D01*
X30538064Y-32149909D01*
X30620118Y-32420408D01*
X30753368Y-32669701D01*
X30932692Y-32888208D01*
X31151199Y-33067532D01*
X31284158Y-33138600D01*
X31151199Y-33209668D01*
X30932692Y-33388992D01*
X30753368Y-33607499D01*
X30620118Y-33856792D01*
X30538064Y-34127291D01*
X30510357Y-34408600D01*
X30538064Y-34689909D01*
X30620118Y-34960408D01*
X30753368Y-35209701D01*
X30932692Y-35428208D01*
X31151199Y-35607532D01*
X31284158Y-35678600D01*
X31151199Y-35749668D01*
X30932692Y-35928992D01*
X30753368Y-36147499D01*
X30620118Y-36396792D01*
X30538064Y-36667291D01*
X30510357Y-36948600D01*
X30538064Y-37229909D01*
X30620118Y-37500408D01*
X30753368Y-37749701D01*
X30932692Y-37968208D01*
X31151199Y-38147532D01*
X31284158Y-38218600D01*
X31151199Y-38289668D01*
X30932692Y-38468992D01*
X30753368Y-38687499D01*
X30620118Y-38936792D01*
X30538064Y-39207291D01*
X30510357Y-39488600D01*
X30538064Y-39769909D01*
X30620118Y-40040408D01*
X30753368Y-40289701D01*
X30932692Y-40508208D01*
X31151199Y-40687532D01*
X31284158Y-40758600D01*
X31151199Y-40829668D01*
X30932692Y-41008992D01*
X30753368Y-41227499D01*
X30620118Y-41476792D01*
X30538064Y-41747291D01*
X30510357Y-42028600D01*
X30538064Y-42309909D01*
X30620118Y-42580408D01*
X30753368Y-42829701D01*
X30932692Y-43048208D01*
X31151199Y-43227532D01*
X31284158Y-43298600D01*
X31151199Y-43369668D01*
X30932692Y-43548992D01*
X30753368Y-43767499D01*
X30620118Y-44016792D01*
X30538064Y-44287291D01*
X30510357Y-44568600D01*
X30538064Y-44849909D01*
X30620118Y-45120408D01*
X30753368Y-45369701D01*
X30932692Y-45588208D01*
X31151199Y-45767532D01*
X31284158Y-45838600D01*
X31151199Y-45909668D01*
X30932692Y-46088992D01*
X30753368Y-46307499D01*
X30620118Y-46556792D01*
X30538064Y-46827291D01*
X30510357Y-47108600D01*
X30538064Y-47389909D01*
X30620118Y-47660408D01*
X30753368Y-47909701D01*
X30932692Y-48128208D01*
X31151199Y-48307532D01*
X31284158Y-48378600D01*
X31151199Y-48449668D01*
X30932692Y-48628992D01*
X30753368Y-48847499D01*
X30620118Y-49096792D01*
X30538064Y-49367291D01*
X30510357Y-49648600D01*
X30538064Y-49929909D01*
X30620118Y-50200408D01*
X30753368Y-50449701D01*
X30930059Y-50665000D01*
X17717389Y-50665000D01*
X17775819Y-50612014D01*
X17943337Y-50386020D01*
X18063546Y-50131687D01*
X18104204Y-49997639D01*
X17982215Y-49775600D01*
X16839300Y-49775600D01*
X16839300Y-49795600D01*
X16585300Y-49795600D01*
X16585300Y-49775600D01*
X16565300Y-49775600D01*
X16565300Y-49521600D01*
X16585300Y-49521600D01*
X16585300Y-49501600D01*
X16839300Y-49501600D01*
X16839300Y-49521600D01*
X17982215Y-49521600D01*
X18104204Y-49299561D01*
X18063546Y-49165513D01*
X17943337Y-48911180D01*
X17775819Y-48685186D01*
X17567431Y-48496215D01*
X17375618Y-48381179D01*
X17513401Y-48307532D01*
X17731908Y-48128208D01*
X17911232Y-47909701D01*
X18044482Y-47660408D01*
X18126536Y-47389909D01*
X18154243Y-47108600D01*
X18126536Y-46827291D01*
X18044482Y-46556792D01*
X17911232Y-46307499D01*
X17731908Y-46088992D01*
X17513401Y-45909668D01*
X17380442Y-45838600D01*
X17513401Y-45767532D01*
X17731908Y-45588208D01*
X17911232Y-45369701D01*
X18044482Y-45120408D01*
X18126536Y-44849909D01*
X18154243Y-44568600D01*
X18126536Y-44287291D01*
X18044482Y-44016792D01*
X17911232Y-43767499D01*
X17731908Y-43548992D01*
X17513401Y-43369668D01*
X17380442Y-43298600D01*
X17513401Y-43227532D01*
X17731908Y-43048208D01*
X17911232Y-42829701D01*
X18044482Y-42580408D01*
X18126536Y-42309909D01*
X18154243Y-42028600D01*
X18126536Y-41747291D01*
X18044482Y-41476792D01*
X17911232Y-41227499D01*
X17731908Y-41008992D01*
X17513401Y-40829668D01*
X17380442Y-40758600D01*
X17513401Y-40687532D01*
X17731908Y-40508208D01*
X17911232Y-40289701D01*
X18044482Y-40040408D01*
X18126536Y-39769909D01*
X18154243Y-39488600D01*
X18126536Y-39207291D01*
X18044482Y-38936792D01*
X17911232Y-38687499D01*
X17731908Y-38468992D01*
X17513401Y-38289668D01*
X17380442Y-38218600D01*
X17513401Y-38147532D01*
X17731908Y-37968208D01*
X17911232Y-37749701D01*
X18044482Y-37500408D01*
X18126536Y-37229909D01*
X18154243Y-36948600D01*
X18126536Y-36667291D01*
X18044482Y-36396792D01*
X17911232Y-36147499D01*
X17731908Y-35928992D01*
X17513401Y-35749668D01*
X17380442Y-35678600D01*
X17513401Y-35607532D01*
X17731908Y-35428208D01*
X17911232Y-35209701D01*
X18044482Y-34960408D01*
X18126536Y-34689909D01*
X18154243Y-34408600D01*
X18126536Y-34127291D01*
X18044482Y-33856792D01*
X17911232Y-33607499D01*
X17731908Y-33388992D01*
X17513401Y-33209668D01*
X17380442Y-33138600D01*
X17513401Y-33067532D01*
X17731908Y-32888208D01*
X17911232Y-32669701D01*
X18044482Y-32420408D01*
X18126536Y-32149909D01*
X18154243Y-31868600D01*
X18126536Y-31587291D01*
X18044482Y-31316792D01*
X17911232Y-31067499D01*
X17731908Y-30848992D01*
X17513401Y-30669668D01*
X17380442Y-30598600D01*
X17513401Y-30527532D01*
X17731908Y-30348208D01*
X17911232Y-30129701D01*
X18044482Y-29880408D01*
X18126536Y-29609909D01*
X18154243Y-29328600D01*
X18126536Y-29047291D01*
X18044482Y-28776792D01*
X17911232Y-28527499D01*
X17731908Y-28308992D01*
X17513401Y-28129668D01*
X17380442Y-28058600D01*
X17513401Y-27987532D01*
X17731908Y-27808208D01*
X17911232Y-27589701D01*
X18044482Y-27340408D01*
X18126536Y-27069909D01*
X18154243Y-26788600D01*
X18126536Y-26507291D01*
X18044482Y-26236792D01*
X17911232Y-25987499D01*
X17731908Y-25768992D01*
X17513401Y-25589668D01*
X17380442Y-25518600D01*
X17513401Y-25447532D01*
X17731908Y-25268208D01*
X17911232Y-25049701D01*
X17933583Y-25007884D01*
X20564300Y-27638602D01*
X20588099Y-27667601D01*
X20703824Y-27762574D01*
X20835853Y-27833146D01*
X20979114Y-27876603D01*
X21090767Y-27887600D01*
X21090776Y-27887600D01*
X21128099Y-27891276D01*
X21165422Y-27887600D01*
X21757028Y-27887600D01*
X21757028Y-28127600D01*
X21769288Y-28252082D01*
X21805598Y-28371780D01*
X21864563Y-28482094D01*
X21943915Y-28578785D01*
X22040606Y-28658137D01*
X22150920Y-28717102D01*
X22270618Y-28753412D01*
X22395100Y-28765672D01*
X23239601Y-28765672D01*
X23239601Y-29053096D01*
X20654803Y-31637896D01*
X20625799Y-31661699D01*
X20570671Y-31728874D01*
X20530826Y-31777424D01*
X20482091Y-31868600D01*
X20460254Y-31909454D01*
X20416797Y-32052715D01*
X20405800Y-32164368D01*
X20405800Y-32164378D01*
X20402124Y-32201700D01*
X20405800Y-32239022D01*
X20405801Y-43505134D01*
X20373194Y-43531894D01*
X20268969Y-43658892D01*
X20191522Y-43803784D01*
X20143831Y-43961000D01*
X20127728Y-44124500D01*
X20127728Y-45024500D01*
X20143831Y-45188000D01*
X20191522Y-45345216D01*
X20268969Y-45490108D01*
X20373194Y-45617106D01*
X20500192Y-45721331D01*
X20645084Y-45798778D01*
X20802300Y-45846469D01*
X20965800Y-45862572D01*
X21365800Y-45862572D01*
X21529300Y-45846469D01*
X21686516Y-45798778D01*
X21831408Y-45721331D01*
X21849785Y-45706249D01*
X21867640Y-45719755D01*
X22052828Y-45809494D01*
X22129677Y-45819166D01*
X22288800Y-45691498D01*
X22288800Y-44701500D01*
X22268800Y-44701500D01*
X22268800Y-44447500D01*
X22288800Y-44447500D01*
X22288800Y-43457502D01*
X22542800Y-43457502D01*
X22542800Y-44447500D01*
X22562800Y-44447500D01*
X22562800Y-44701500D01*
X22542800Y-44701500D01*
X22542800Y-45691498D01*
X22701923Y-45819166D01*
X22778772Y-45809494D01*
X22963960Y-45719755D01*
X23047863Y-45656291D01*
X23088004Y-45689234D01*
X23267808Y-45785341D01*
X23462906Y-45844524D01*
X23665800Y-45864507D01*
X23868695Y-45844524D01*
X24063793Y-45785341D01*
X24243597Y-45689234D01*
X24290801Y-45650495D01*
X24338004Y-45689234D01*
X24517808Y-45785341D01*
X24712906Y-45844524D01*
X24915800Y-45864507D01*
X25118695Y-45844524D01*
X25313793Y-45785341D01*
X25493597Y-45689234D01*
X25540801Y-45650495D01*
X25588004Y-45689234D01*
X25767808Y-45785341D01*
X25962906Y-45844524D01*
X26165800Y-45864507D01*
X26368695Y-45844524D01*
X26563793Y-45785341D01*
X26743597Y-45689234D01*
X26790801Y-45650495D01*
X26838004Y-45689234D01*
X27017808Y-45785341D01*
X27212906Y-45844524D01*
X27415800Y-45864507D01*
X27618695Y-45844524D01*
X27813793Y-45785341D01*
X27993597Y-45689234D01*
X28151196Y-45559896D01*
X28280534Y-45402297D01*
X28376641Y-45222492D01*
X28435824Y-45027394D01*
X28450800Y-44875337D01*
X28450800Y-44273662D01*
X28435824Y-44121605D01*
X28376641Y-43926507D01*
X28280534Y-43746703D01*
X28151196Y-43589104D01*
X27993597Y-43459766D01*
X27813792Y-43363659D01*
X27618694Y-43304476D01*
X27415800Y-43284493D01*
X27212905Y-43304476D01*
X27017807Y-43363659D01*
X26838003Y-43459766D01*
X26790800Y-43498504D01*
X26743597Y-43459766D01*
X26563792Y-43363659D01*
X26368694Y-43304476D01*
X26165800Y-43284493D01*
X25962905Y-43304476D01*
X25767807Y-43363659D01*
X25675800Y-43412838D01*
X25675800Y-33038501D01*
X28093004Y-30621298D01*
X28122001Y-30597501D01*
X28216974Y-30481776D01*
X28287546Y-30349747D01*
X28298598Y-30313313D01*
X28385937Y-30225974D01*
X28499205Y-30056456D01*
X28577226Y-29868098D01*
X28617000Y-29668139D01*
X28617000Y-29464261D01*
X28577226Y-29264302D01*
X28499205Y-29075944D01*
X28385937Y-28906426D01*
X28241774Y-28762263D01*
X28072256Y-28648995D01*
X27883898Y-28570974D01*
X27683939Y-28531200D01*
X27480061Y-28531200D01*
X27280102Y-28570974D01*
X27091744Y-28648995D01*
X26922226Y-28762263D01*
X26778063Y-28906426D01*
X26664795Y-29075944D01*
X26586774Y-29264302D01*
X26547000Y-29464261D01*
X26547000Y-29668139D01*
X26586774Y-29868098D01*
X26618942Y-29945757D01*
X24404798Y-32159901D01*
X24375800Y-32183699D01*
X24352002Y-32212697D01*
X24352001Y-32212698D01*
X24280826Y-32299424D01*
X24210254Y-32431454D01*
X24191298Y-32493946D01*
X24166798Y-32574714D01*
X24155801Y-32686367D01*
X24152124Y-32723700D01*
X24155801Y-32761032D01*
X24155800Y-43412838D01*
X24063792Y-43363659D01*
X23868694Y-43304476D01*
X23665800Y-43284493D01*
X23462905Y-43304476D01*
X23267807Y-43363659D01*
X23088003Y-43459766D01*
X23047862Y-43492709D01*
X22963960Y-43429245D01*
X22778772Y-43339506D01*
X22701923Y-43329834D01*
X22542800Y-43457502D01*
X22288800Y-43457502D01*
X22129677Y-43329834D01*
X22052828Y-43339506D01*
X21925800Y-43401062D01*
X21925800Y-32516501D01*
X24162343Y-30279960D01*
X24170044Y-30285105D01*
X24358402Y-30363126D01*
X24558361Y-30402900D01*
X24762239Y-30402900D01*
X24962198Y-30363126D01*
X25150556Y-30285105D01*
X25320074Y-30171837D01*
X25464237Y-30027674D01*
X25577505Y-29858156D01*
X25655526Y-29669798D01*
X25695300Y-29469839D01*
X25695300Y-29265961D01*
X25655526Y-29066002D01*
X25577505Y-28877644D01*
X25502688Y-28765672D01*
X26195100Y-28765672D01*
X26319582Y-28753412D01*
X26439280Y-28717102D01*
X26549594Y-28658137D01*
X26646285Y-28578785D01*
X26725637Y-28482094D01*
X26784602Y-28371780D01*
X26820912Y-28252082D01*
X26833172Y-28127600D01*
X26833172Y-26127600D01*
X26820912Y-26003118D01*
X26784602Y-25883420D01*
X26725637Y-25773106D01*
X26646285Y-25676415D01*
X26549594Y-25597063D01*
X26439280Y-25538098D01*
X26319582Y-25501788D01*
X26195100Y-25489528D01*
X22395100Y-25489528D01*
X22270618Y-25501788D01*
X22150920Y-25538098D01*
X22040606Y-25597063D01*
X21943915Y-25676415D01*
X21864563Y-25773106D01*
X21805598Y-25883420D01*
X21769288Y-26003118D01*
X21757028Y-26127600D01*
X21757028Y-26367600D01*
X21442902Y-26367600D01*
X19924301Y-24849000D01*
X19996800Y-24849572D01*
X20121282Y-24837312D01*
X20240980Y-24801002D01*
X20351294Y-24742037D01*
X20447985Y-24662685D01*
X20527337Y-24565994D01*
X20586302Y-24455680D01*
X20622612Y-24335982D01*
X20634872Y-24211500D01*
X27980728Y-24211500D01*
X27992988Y-24335982D01*
X28029298Y-24455680D01*
X28088263Y-24565994D01*
X28167615Y-24662685D01*
X28264306Y-24742037D01*
X28374620Y-24801002D01*
X28494318Y-24837312D01*
X28618800Y-24849572D01*
X29008050Y-24846500D01*
X29166800Y-24687750D01*
X29166800Y-23638500D01*
X28142550Y-23638500D01*
X27983800Y-23797250D01*
X27980728Y-24211500D01*
X20634872Y-24211500D01*
X20631800Y-23797250D01*
X20473050Y-23638500D01*
X19448800Y-23638500D01*
X19448800Y-23658500D01*
X19194800Y-23658500D01*
X19194800Y-23638500D01*
X19174800Y-23638500D01*
X19174800Y-23384500D01*
X19194800Y-23384500D01*
X19194800Y-22335250D01*
X19448800Y-22335250D01*
X19448800Y-23384500D01*
X20473050Y-23384500D01*
X20631800Y-23225750D01*
X20634872Y-22811500D01*
X27980728Y-22811500D01*
X27983800Y-23225750D01*
X28142550Y-23384500D01*
X29166800Y-23384500D01*
X29166800Y-22335250D01*
X29420800Y-22335250D01*
X29420800Y-23384500D01*
X30445050Y-23384500D01*
X30603800Y-23225750D01*
X30606872Y-22811500D01*
X30594612Y-22687018D01*
X30558302Y-22567320D01*
X30499337Y-22457006D01*
X30419985Y-22360315D01*
X30323294Y-22280963D01*
X30212980Y-22221998D01*
X30093282Y-22185688D01*
X29968800Y-22173428D01*
X29579550Y-22176500D01*
X29420800Y-22335250D01*
X29166800Y-22335250D01*
X29008050Y-22176500D01*
X28618800Y-22173428D01*
X28494318Y-22185688D01*
X28374620Y-22221998D01*
X28264306Y-22280963D01*
X28167615Y-22360315D01*
X28088263Y-22457006D01*
X28029298Y-22567320D01*
X27992988Y-22687018D01*
X27980728Y-22811500D01*
X20634872Y-22811500D01*
X20622612Y-22687018D01*
X20586302Y-22567320D01*
X20527337Y-22457006D01*
X20447985Y-22360315D01*
X20351294Y-22280963D01*
X20240980Y-22221998D01*
X20121282Y-22185688D01*
X19996800Y-22173428D01*
X19607550Y-22176500D01*
X19448800Y-22335250D01*
X19194800Y-22335250D01*
X19036050Y-22176500D01*
X19035600Y-22176496D01*
X19035600Y-22172501D01*
X19058529Y-22149572D01*
X19746801Y-22149572D01*
X19920055Y-22132508D01*
X20086651Y-22081972D01*
X20240187Y-21999905D01*
X20374762Y-21889462D01*
X20485205Y-21754887D01*
X20567272Y-21601351D01*
X20608587Y-21465153D01*
X20607028Y-21827600D01*
X20619288Y-21952082D01*
X20655598Y-22071780D01*
X20714563Y-22182094D01*
X20793915Y-22278785D01*
X20890606Y-22358137D01*
X21000920Y-22417102D01*
X21120618Y-22453412D01*
X21245100Y-22465672D01*
X21709350Y-22462600D01*
X21868100Y-22303850D01*
X21868100Y-20954600D01*
X21848100Y-20954600D01*
X21848100Y-20700600D01*
X21868100Y-20700600D01*
X21868100Y-20680600D01*
X22122100Y-20680600D01*
X22122100Y-20700600D01*
X22122100Y-20700600D01*
G37*
X22122100Y-20700600D02*
X22142100Y-20700600D01*
X22142100Y-20954600D01*
X22122100Y-20954600D01*
X22122100Y-22303850D01*
X22280850Y-22462600D01*
X22745100Y-22465672D01*
X22869582Y-22453412D01*
X22989280Y-22417102D01*
X23099594Y-22358137D01*
X23145100Y-22320791D01*
X23190606Y-22358137D01*
X23300920Y-22417102D01*
X23420618Y-22453412D01*
X23545100Y-22465672D01*
X25045100Y-22465672D01*
X25169582Y-22453412D01*
X25289280Y-22417102D01*
X25399594Y-22358137D01*
X25445100Y-22320791D01*
X25490606Y-22358137D01*
X25600920Y-22417102D01*
X25720618Y-22453412D01*
X25845100Y-22465672D01*
X27345100Y-22465672D01*
X27469582Y-22453412D01*
X27589280Y-22417102D01*
X27699594Y-22358137D01*
X27796285Y-22278785D01*
X27875637Y-22182094D01*
X27934602Y-22071780D01*
X27970912Y-21952082D01*
X27983172Y-21827600D01*
X27983172Y-21696500D01*
X28099186Y-21696500D01*
X28130395Y-21754887D01*
X28240838Y-21889462D01*
X28375413Y-21999905D01*
X28528949Y-22081972D01*
X28695545Y-22132508D01*
X28868799Y-22149572D01*
X29718801Y-22149572D01*
X29892055Y-22132508D01*
X30058651Y-22081972D01*
X30212187Y-21999905D01*
X30346762Y-21889462D01*
X30457205Y-21754887D01*
X30516775Y-21643440D01*
X30510357Y-21708600D01*
X30538064Y-21989909D01*
X30620118Y-22260408D01*
X30753368Y-22509701D01*
X30932692Y-22728208D01*
X31151199Y-22907532D01*
X31284158Y-22978600D01*
X31151199Y-23049668D01*
X30932692Y-23228992D01*
X30753368Y-23447499D01*
X30620118Y-23696792D01*
X30592939Y-23786389D01*
X30445050Y-23638500D01*
X29420800Y-23638500D01*
X29420800Y-24687750D01*
X29579550Y-24846500D01*
X29968800Y-24849572D01*
X30093282Y-24837312D01*
X30212980Y-24801002D01*
X30323294Y-24742037D01*
X30419985Y-24662685D01*
X30499337Y-24565994D01*
X30535039Y-24499201D01*
X30538064Y-24529909D01*
X30620118Y-24800408D01*
X30753368Y-25049701D01*
X30932692Y-25268208D01*
X31151199Y-25447532D01*
X31284158Y-25518600D01*
X31151199Y-25589668D01*
X30932692Y-25768992D01*
X30753368Y-25987499D01*
X30620118Y-26236792D01*
X30538064Y-26507291D01*
X30510357Y-26788600D01*
X30538064Y-27069909D01*
X30620118Y-27340408D01*
X30753368Y-27589701D01*
X30932692Y-27808208D01*
X31151199Y-27987532D01*
X31284158Y-28058600D01*
X31151199Y-28129668D01*
X30932692Y-28308992D01*
X30753368Y-28527499D01*
X30620118Y-28776792D01*
X30538064Y-29047291D01*
X30510357Y-29328600D01*
X30538064Y-29609909D01*
X30620118Y-29880408D01*
X30753368Y-30129701D01*
X30932692Y-30348208D01*
X31151199Y-30527532D01*
X31284158Y-30598600D01*
X31151199Y-30669668D01*
X30932692Y-30848992D01*
X30753368Y-31067499D01*
X30620118Y-31316792D01*
X30538064Y-31587291D01*
X30510357Y-31868600D01*
X30538064Y-32149909D01*
X30620118Y-32420408D01*
X30753368Y-32669701D01*
X30932692Y-32888208D01*
X31151199Y-33067532D01*
X31284158Y-33138600D01*
X31151199Y-33209668D01*
X30932692Y-33388992D01*
X30753368Y-33607499D01*
X30620118Y-33856792D01*
X30538064Y-34127291D01*
X30510357Y-34408600D01*
X30538064Y-34689909D01*
X30620118Y-34960408D01*
X30753368Y-35209701D01*
X30932692Y-35428208D01*
X31151199Y-35607532D01*
X31284158Y-35678600D01*
X31151199Y-35749668D01*
X30932692Y-35928992D01*
X30753368Y-36147499D01*
X30620118Y-36396792D01*
X30538064Y-36667291D01*
X30510357Y-36948600D01*
X30538064Y-37229909D01*
X30620118Y-37500408D01*
X30753368Y-37749701D01*
X30932692Y-37968208D01*
X31151199Y-38147532D01*
X31284158Y-38218600D01*
X31151199Y-38289668D01*
X30932692Y-38468992D01*
X30753368Y-38687499D01*
X30620118Y-38936792D01*
X30538064Y-39207291D01*
X30510357Y-39488600D01*
X30538064Y-39769909D01*
X30620118Y-40040408D01*
X30753368Y-40289701D01*
X30932692Y-40508208D01*
X31151199Y-40687532D01*
X31284158Y-40758600D01*
X31151199Y-40829668D01*
X30932692Y-41008992D01*
X30753368Y-41227499D01*
X30620118Y-41476792D01*
X30538064Y-41747291D01*
X30510357Y-42028600D01*
X30538064Y-42309909D01*
X30620118Y-42580408D01*
X30753368Y-42829701D01*
X30932692Y-43048208D01*
X31151199Y-43227532D01*
X31284158Y-43298600D01*
X31151199Y-43369668D01*
X30932692Y-43548992D01*
X30753368Y-43767499D01*
X30620118Y-44016792D01*
X30538064Y-44287291D01*
X30510357Y-44568600D01*
X30538064Y-44849909D01*
X30620118Y-45120408D01*
X30753368Y-45369701D01*
X30932692Y-45588208D01*
X31151199Y-45767532D01*
X31284158Y-45838600D01*
X31151199Y-45909668D01*
X30932692Y-46088992D01*
X30753368Y-46307499D01*
X30620118Y-46556792D01*
X30538064Y-46827291D01*
X30510357Y-47108600D01*
X30538064Y-47389909D01*
X30620118Y-47660408D01*
X30753368Y-47909701D01*
X30932692Y-48128208D01*
X31151199Y-48307532D01*
X31284158Y-48378600D01*
X31151199Y-48449668D01*
X30932692Y-48628992D01*
X30753368Y-48847499D01*
X30620118Y-49096792D01*
X30538064Y-49367291D01*
X30510357Y-49648600D01*
X30538064Y-49929909D01*
X30620118Y-50200408D01*
X30753368Y-50449701D01*
X30930059Y-50665000D01*
X17717389Y-50665000D01*
X17775819Y-50612014D01*
X17943337Y-50386020D01*
X18063546Y-50131687D01*
X18104204Y-49997639D01*
X17982215Y-49775600D01*
X16839300Y-49775600D01*
X16839300Y-49795600D01*
X16585300Y-49795600D01*
X16585300Y-49775600D01*
X16565300Y-49775600D01*
X16565300Y-49521600D01*
X16585300Y-49521600D01*
X16585300Y-49501600D01*
X16839300Y-49501600D01*
X16839300Y-49521600D01*
X17982215Y-49521600D01*
X18104204Y-49299561D01*
X18063546Y-49165513D01*
X17943337Y-48911180D01*
X17775819Y-48685186D01*
X17567431Y-48496215D01*
X17375618Y-48381179D01*
X17513401Y-48307532D01*
X17731908Y-48128208D01*
X17911232Y-47909701D01*
X18044482Y-47660408D01*
X18126536Y-47389909D01*
X18154243Y-47108600D01*
X18126536Y-46827291D01*
X18044482Y-46556792D01*
X17911232Y-46307499D01*
X17731908Y-46088992D01*
X17513401Y-45909668D01*
X17380442Y-45838600D01*
X17513401Y-45767532D01*
X17731908Y-45588208D01*
X17911232Y-45369701D01*
X18044482Y-45120408D01*
X18126536Y-44849909D01*
X18154243Y-44568600D01*
X18126536Y-44287291D01*
X18044482Y-44016792D01*
X17911232Y-43767499D01*
X17731908Y-43548992D01*
X17513401Y-43369668D01*
X17380442Y-43298600D01*
X17513401Y-43227532D01*
X17731908Y-43048208D01*
X17911232Y-42829701D01*
X18044482Y-42580408D01*
X18126536Y-42309909D01*
X18154243Y-42028600D01*
X18126536Y-41747291D01*
X18044482Y-41476792D01*
X17911232Y-41227499D01*
X17731908Y-41008992D01*
X17513401Y-40829668D01*
X17380442Y-40758600D01*
X17513401Y-40687532D01*
X17731908Y-40508208D01*
X17911232Y-40289701D01*
X18044482Y-40040408D01*
X18126536Y-39769909D01*
X18154243Y-39488600D01*
X18126536Y-39207291D01*
X18044482Y-38936792D01*
X17911232Y-38687499D01*
X17731908Y-38468992D01*
X17513401Y-38289668D01*
X17380442Y-38218600D01*
X17513401Y-38147532D01*
X17731908Y-37968208D01*
X17911232Y-37749701D01*
X18044482Y-37500408D01*
X18126536Y-37229909D01*
X18154243Y-36948600D01*
X18126536Y-36667291D01*
X18044482Y-36396792D01*
X17911232Y-36147499D01*
X17731908Y-35928992D01*
X17513401Y-35749668D01*
X17380442Y-35678600D01*
X17513401Y-35607532D01*
X17731908Y-35428208D01*
X17911232Y-35209701D01*
X18044482Y-34960408D01*
X18126536Y-34689909D01*
X18154243Y-34408600D01*
X18126536Y-34127291D01*
X18044482Y-33856792D01*
X17911232Y-33607499D01*
X17731908Y-33388992D01*
X17513401Y-33209668D01*
X17380442Y-33138600D01*
X17513401Y-33067532D01*
X17731908Y-32888208D01*
X17911232Y-32669701D01*
X18044482Y-32420408D01*
X18126536Y-32149909D01*
X18154243Y-31868600D01*
X18126536Y-31587291D01*
X18044482Y-31316792D01*
X17911232Y-31067499D01*
X17731908Y-30848992D01*
X17513401Y-30669668D01*
X17380442Y-30598600D01*
X17513401Y-30527532D01*
X17731908Y-30348208D01*
X17911232Y-30129701D01*
X18044482Y-29880408D01*
X18126536Y-29609909D01*
X18154243Y-29328600D01*
X18126536Y-29047291D01*
X18044482Y-28776792D01*
X17911232Y-28527499D01*
X17731908Y-28308992D01*
X17513401Y-28129668D01*
X17380442Y-28058600D01*
X17513401Y-27987532D01*
X17731908Y-27808208D01*
X17911232Y-27589701D01*
X18044482Y-27340408D01*
X18126536Y-27069909D01*
X18154243Y-26788600D01*
X18126536Y-26507291D01*
X18044482Y-26236792D01*
X17911232Y-25987499D01*
X17731908Y-25768992D01*
X17513401Y-25589668D01*
X17380442Y-25518600D01*
X17513401Y-25447532D01*
X17731908Y-25268208D01*
X17911232Y-25049701D01*
X17933583Y-25007884D01*
X20564300Y-27638602D01*
X20588099Y-27667601D01*
X20703824Y-27762574D01*
X20835853Y-27833146D01*
X20979114Y-27876603D01*
X21090767Y-27887600D01*
X21090776Y-27887600D01*
X21128099Y-27891276D01*
X21165422Y-27887600D01*
X21757028Y-27887600D01*
X21757028Y-28127600D01*
X21769288Y-28252082D01*
X21805598Y-28371780D01*
X21864563Y-28482094D01*
X21943915Y-28578785D01*
X22040606Y-28658137D01*
X22150920Y-28717102D01*
X22270618Y-28753412D01*
X22395100Y-28765672D01*
X23239601Y-28765672D01*
X23239601Y-29053096D01*
X20654803Y-31637896D01*
X20625799Y-31661699D01*
X20570671Y-31728874D01*
X20530826Y-31777424D01*
X20482091Y-31868600D01*
X20460254Y-31909454D01*
X20416797Y-32052715D01*
X20405800Y-32164368D01*
X20405800Y-32164378D01*
X20402124Y-32201700D01*
X20405800Y-32239022D01*
X20405801Y-43505134D01*
X20373194Y-43531894D01*
X20268969Y-43658892D01*
X20191522Y-43803784D01*
X20143831Y-43961000D01*
X20127728Y-44124500D01*
X20127728Y-45024500D01*
X20143831Y-45188000D01*
X20191522Y-45345216D01*
X20268969Y-45490108D01*
X20373194Y-45617106D01*
X20500192Y-45721331D01*
X20645084Y-45798778D01*
X20802300Y-45846469D01*
X20965800Y-45862572D01*
X21365800Y-45862572D01*
X21529300Y-45846469D01*
X21686516Y-45798778D01*
X21831408Y-45721331D01*
X21849785Y-45706249D01*
X21867640Y-45719755D01*
X22052828Y-45809494D01*
X22129677Y-45819166D01*
X22288800Y-45691498D01*
X22288800Y-44701500D01*
X22268800Y-44701500D01*
X22268800Y-44447500D01*
X22288800Y-44447500D01*
X22288800Y-43457502D01*
X22542800Y-43457502D01*
X22542800Y-44447500D01*
X22562800Y-44447500D01*
X22562800Y-44701500D01*
X22542800Y-44701500D01*
X22542800Y-45691498D01*
X22701923Y-45819166D01*
X22778772Y-45809494D01*
X22963960Y-45719755D01*
X23047863Y-45656291D01*
X23088004Y-45689234D01*
X23267808Y-45785341D01*
X23462906Y-45844524D01*
X23665800Y-45864507D01*
X23868695Y-45844524D01*
X24063793Y-45785341D01*
X24243597Y-45689234D01*
X24290801Y-45650495D01*
X24338004Y-45689234D01*
X24517808Y-45785341D01*
X24712906Y-45844524D01*
X24915800Y-45864507D01*
X25118695Y-45844524D01*
X25313793Y-45785341D01*
X25493597Y-45689234D01*
X25540801Y-45650495D01*
X25588004Y-45689234D01*
X25767808Y-45785341D01*
X25962906Y-45844524D01*
X26165800Y-45864507D01*
X26368695Y-45844524D01*
X26563793Y-45785341D01*
X26743597Y-45689234D01*
X26790801Y-45650495D01*
X26838004Y-45689234D01*
X27017808Y-45785341D01*
X27212906Y-45844524D01*
X27415800Y-45864507D01*
X27618695Y-45844524D01*
X27813793Y-45785341D01*
X27993597Y-45689234D01*
X28151196Y-45559896D01*
X28280534Y-45402297D01*
X28376641Y-45222492D01*
X28435824Y-45027394D01*
X28450800Y-44875337D01*
X28450800Y-44273662D01*
X28435824Y-44121605D01*
X28376641Y-43926507D01*
X28280534Y-43746703D01*
X28151196Y-43589104D01*
X27993597Y-43459766D01*
X27813792Y-43363659D01*
X27618694Y-43304476D01*
X27415800Y-43284493D01*
X27212905Y-43304476D01*
X27017807Y-43363659D01*
X26838003Y-43459766D01*
X26790800Y-43498504D01*
X26743597Y-43459766D01*
X26563792Y-43363659D01*
X26368694Y-43304476D01*
X26165800Y-43284493D01*
X25962905Y-43304476D01*
X25767807Y-43363659D01*
X25675800Y-43412838D01*
X25675800Y-33038501D01*
X28093004Y-30621298D01*
X28122001Y-30597501D01*
X28216974Y-30481776D01*
X28287546Y-30349747D01*
X28298598Y-30313313D01*
X28385937Y-30225974D01*
X28499205Y-30056456D01*
X28577226Y-29868098D01*
X28617000Y-29668139D01*
X28617000Y-29464261D01*
X28577226Y-29264302D01*
X28499205Y-29075944D01*
X28385937Y-28906426D01*
X28241774Y-28762263D01*
X28072256Y-28648995D01*
X27883898Y-28570974D01*
X27683939Y-28531200D01*
X27480061Y-28531200D01*
X27280102Y-28570974D01*
X27091744Y-28648995D01*
X26922226Y-28762263D01*
X26778063Y-28906426D01*
X26664795Y-29075944D01*
X26586774Y-29264302D01*
X26547000Y-29464261D01*
X26547000Y-29668139D01*
X26586774Y-29868098D01*
X26618942Y-29945757D01*
X24404798Y-32159901D01*
X24375800Y-32183699D01*
X24352002Y-32212697D01*
X24352001Y-32212698D01*
X24280826Y-32299424D01*
X24210254Y-32431454D01*
X24191298Y-32493946D01*
X24166798Y-32574714D01*
X24155801Y-32686367D01*
X24152124Y-32723700D01*
X24155801Y-32761032D01*
X24155800Y-43412838D01*
X24063792Y-43363659D01*
X23868694Y-43304476D01*
X23665800Y-43284493D01*
X23462905Y-43304476D01*
X23267807Y-43363659D01*
X23088003Y-43459766D01*
X23047862Y-43492709D01*
X22963960Y-43429245D01*
X22778772Y-43339506D01*
X22701923Y-43329834D01*
X22542800Y-43457502D01*
X22288800Y-43457502D01*
X22129677Y-43329834D01*
X22052828Y-43339506D01*
X21925800Y-43401062D01*
X21925800Y-32516501D01*
X24162343Y-30279960D01*
X24170044Y-30285105D01*
X24358402Y-30363126D01*
X24558361Y-30402900D01*
X24762239Y-30402900D01*
X24962198Y-30363126D01*
X25150556Y-30285105D01*
X25320074Y-30171837D01*
X25464237Y-30027674D01*
X25577505Y-29858156D01*
X25655526Y-29669798D01*
X25695300Y-29469839D01*
X25695300Y-29265961D01*
X25655526Y-29066002D01*
X25577505Y-28877644D01*
X25502688Y-28765672D01*
X26195100Y-28765672D01*
X26319582Y-28753412D01*
X26439280Y-28717102D01*
X26549594Y-28658137D01*
X26646285Y-28578785D01*
X26725637Y-28482094D01*
X26784602Y-28371780D01*
X26820912Y-28252082D01*
X26833172Y-28127600D01*
X26833172Y-26127600D01*
X26820912Y-26003118D01*
X26784602Y-25883420D01*
X26725637Y-25773106D01*
X26646285Y-25676415D01*
X26549594Y-25597063D01*
X26439280Y-25538098D01*
X26319582Y-25501788D01*
X26195100Y-25489528D01*
X22395100Y-25489528D01*
X22270618Y-25501788D01*
X22150920Y-25538098D01*
X22040606Y-25597063D01*
X21943915Y-25676415D01*
X21864563Y-25773106D01*
X21805598Y-25883420D01*
X21769288Y-26003118D01*
X21757028Y-26127600D01*
X21757028Y-26367600D01*
X21442902Y-26367600D01*
X19924301Y-24849000D01*
X19996800Y-24849572D01*
X20121282Y-24837312D01*
X20240980Y-24801002D01*
X20351294Y-24742037D01*
X20447985Y-24662685D01*
X20527337Y-24565994D01*
X20586302Y-24455680D01*
X20622612Y-24335982D01*
X20634872Y-24211500D01*
X27980728Y-24211500D01*
X27992988Y-24335982D01*
X28029298Y-24455680D01*
X28088263Y-24565994D01*
X28167615Y-24662685D01*
X28264306Y-24742037D01*
X28374620Y-24801002D01*
X28494318Y-24837312D01*
X28618800Y-24849572D01*
X29008050Y-24846500D01*
X29166800Y-24687750D01*
X29166800Y-23638500D01*
X28142550Y-23638500D01*
X27983800Y-23797250D01*
X27980728Y-24211500D01*
X20634872Y-24211500D01*
X20631800Y-23797250D01*
X20473050Y-23638500D01*
X19448800Y-23638500D01*
X19448800Y-23658500D01*
X19194800Y-23658500D01*
X19194800Y-23638500D01*
X19174800Y-23638500D01*
X19174800Y-23384500D01*
X19194800Y-23384500D01*
X19194800Y-22335250D01*
X19448800Y-22335250D01*
X19448800Y-23384500D01*
X20473050Y-23384500D01*
X20631800Y-23225750D01*
X20634872Y-22811500D01*
X27980728Y-22811500D01*
X27983800Y-23225750D01*
X28142550Y-23384500D01*
X29166800Y-23384500D01*
X29166800Y-22335250D01*
X29420800Y-22335250D01*
X29420800Y-23384500D01*
X30445050Y-23384500D01*
X30603800Y-23225750D01*
X30606872Y-22811500D01*
X30594612Y-22687018D01*
X30558302Y-22567320D01*
X30499337Y-22457006D01*
X30419985Y-22360315D01*
X30323294Y-22280963D01*
X30212980Y-22221998D01*
X30093282Y-22185688D01*
X29968800Y-22173428D01*
X29579550Y-22176500D01*
X29420800Y-22335250D01*
X29166800Y-22335250D01*
X29008050Y-22176500D01*
X28618800Y-22173428D01*
X28494318Y-22185688D01*
X28374620Y-22221998D01*
X28264306Y-22280963D01*
X28167615Y-22360315D01*
X28088263Y-22457006D01*
X28029298Y-22567320D01*
X27992988Y-22687018D01*
X27980728Y-22811500D01*
X20634872Y-22811500D01*
X20622612Y-22687018D01*
X20586302Y-22567320D01*
X20527337Y-22457006D01*
X20447985Y-22360315D01*
X20351294Y-22280963D01*
X20240980Y-22221998D01*
X20121282Y-22185688D01*
X19996800Y-22173428D01*
X19607550Y-22176500D01*
X19448800Y-22335250D01*
X19194800Y-22335250D01*
X19036050Y-22176500D01*
X19035600Y-22176496D01*
X19035600Y-22172501D01*
X19058529Y-22149572D01*
X19746801Y-22149572D01*
X19920055Y-22132508D01*
X20086651Y-22081972D01*
X20240187Y-21999905D01*
X20374762Y-21889462D01*
X20485205Y-21754887D01*
X20567272Y-21601351D01*
X20608587Y-21465153D01*
X20607028Y-21827600D01*
X20619288Y-21952082D01*
X20655598Y-22071780D01*
X20714563Y-22182094D01*
X20793915Y-22278785D01*
X20890606Y-22358137D01*
X21000920Y-22417102D01*
X21120618Y-22453412D01*
X21245100Y-22465672D01*
X21709350Y-22462600D01*
X21868100Y-22303850D01*
X21868100Y-20954600D01*
X21848100Y-20954600D01*
X21848100Y-20700600D01*
X21868100Y-20700600D01*
X21868100Y-20680600D01*
X22122100Y-20680600D01*
X22122100Y-20700600D01*
M02*
