M48
; DRILL file {KiCad (5.1.4)-1} date 29/02/2020 18:51:58
; FORMAT={-:-/ absolute / inch / decimal}
; #@! TF.CreationDate,2020-02-29T18:51:58+01:00
; #@! TF.GenerationSoftware,Kicad,Pcbnew,(5.1.4)-1
; #@! TF.FileFunction,Plated,1,2,PTH
FMAT,2
INCH
T1C0.0157
T2C0.0197
T3C0.0315
%
G90
G05
T1
X0.9709Y-1.1562
X1.0449Y-1.1786
X1.0859Y-1.164
T2
X0.8333Y-1.7549
X0.8825Y-1.7549
X0.9317Y-1.7549
X0.9809Y-1.7549
X1.0301Y-1.7549
X1.0794Y-1.7549
T3
X0.658Y-0.6547
X0.658Y-0.7547
X0.658Y-0.8547
X0.658Y-0.9547
X0.658Y-1.0547
X0.658Y-1.1547
X0.658Y-1.2547
X0.658Y-1.3547
X0.658Y-1.4547
X0.658Y-1.5547
X0.658Y-1.6547
X0.658Y-1.7547
X0.658Y-1.8547
X0.658Y-1.9547
X1.258Y-0.6547
X1.258Y-0.7547
X1.258Y-0.8547
X1.258Y-0.9547
X1.258Y-1.0547
X1.258Y-1.1547
X1.258Y-1.2547
X1.258Y-1.3547
X1.258Y-1.4547
X1.258Y-1.5547
X1.258Y-1.6547
X1.258Y-1.7547
X1.258Y-1.8547
X1.258Y-1.9547
T0
M30
